<svg xmlns="http://www.w3.org/2000/svg" viewBox="0 0 102.31 46.75"><title>Ativo 1</title><g id="Camada_2" data-name="Camada 2"><g id="Layer_1" data-name="Layer 1"><path d="M14.92,32h-.24v-.17a.3.3,0,0,1,.09-.25,5,5,0,0,0,1.36-2.22c.16-.45.33-1,.52-1.56l.65-2.16a61.25,61.25,0,0,1,5.83-12.82L18.94,18l-3,3.48-1.86,2.08Q8.44,29.73,5.26,31.2a4.9,4.9,0,0,1-2,.53,5.59,5.59,0,0,1-1.47-.16,2.93,2.93,0,0,1-1-.46A1.79,1.79,0,0,1,0,29.62a1,1,0,0,1,.36-.89,1.6,1.6,0,0,1,.94-.42c.63,0,1,.24,1,.72a.71.71,0,0,1-.27.55,1,1,0,0,1-.68.23,1.4,1.4,0,0,1-.68-.15v.09a1.33,1.33,0,0,0,.61,1.12,2.6,2.6,0,0,0,1.6.44,4.94,4.94,0,0,0,2-.44,11.72,11.72,0,0,0,2.37-1.45,49.12,49.12,0,0,0,7-6.75l4.32-5q5.32-6.37,6-7.37c.19-.23.32-.35.41-.35s.12,0,.12.11a.6.6,0,0,1-.06.24l-.22.4a8.39,8.39,0,0,0-.88,2c-.2.72-.36,1.3-.47,1.72s-.24.88-.38,1.37l-.5,1.65A40.53,40.53,0,0,1,19.88,24l-2.72,4.89L21.9,23.3,24,20.93l2.16-2.38,2.11-2.25c4-4.12,7.32-6.62,10-7.49a9.18,9.18,0,0,1,2.87-.47,3.47,3.47,0,0,1,2.33.72,2.66,2.66,0,0,1,.85,2.06,5.24,5.24,0,0,1-1.5,3.31,12,12,0,0,1-4,3,2.13,2.13,0,0,1-.8.26c-.17,0-.25,0-.25-.11s.2-.2.61-.36a8.73,8.73,0,0,0,1.54-.89,10.29,10.29,0,0,0,1.71-1.43,5.31,5.31,0,0,0,1.7-3.55,2.62,2.62,0,0,0-.66-1.91,2.57,2.57,0,0,0-1.92-.68A7.75,7.75,0,0,0,38,9.34a14.57,14.57,0,0,0-3.2,1.75,52.49,52.49,0,0,0-8.26,7.65l-3.64,4.07-3,3.57-4.11,4.88C15.37,31.75,15.08,32,14.92,32ZM12,13.74a.8.8,0,0,1-.6.33.82.82,0,0,1-.54-.2.6.6,0,0,1-.24-.48.76.76,0,0,1,.2-.51.68.68,0,0,1,.52-.22,1.21,1.21,0,0,1,.6.15,1.43,1.43,0,0,1,.49.43,2.42,2.42,0,0,1,.47,1.54,3.48,3.48,0,0,1-.42,1.7,4.16,4.16,0,0,1-1.11,1.32A5.29,5.29,0,0,1,7.93,19,4.8,4.8,0,0,1,4.72,17.9a4,4,0,0,1-1.41-3.24A4.48,4.48,0,0,1,5.26,11a8.17,8.17,0,0,1,5.08-1.5,10.5,10.5,0,0,1,2.82.29c.64.19,1.19.39,1.66.58s.94.4,1.41.63l1.59.73a5.37,5.37,0,0,0,2,.5,3.84,3.84,0,0,0,2.64-1,.28.28,0,0,1,.18-.06c.07,0,.1,0,.1.11a.72.72,0,0,1-.22.38,5.44,5.44,0,0,1-2.78,1.31,5.19,5.19,0,0,1-.92.09,6.69,6.69,0,0,1-1-.09c-.38-.07-.77-.15-1.17-.25a9.51,9.51,0,0,1-2.18-.91c-.65-.37-1.2-.67-1.67-.88a9.85,9.85,0,0,0-1.24-.49,6.42,6.42,0,0,0-2-.3,6.79,6.79,0,0,0-2.16.35,6.23,6.23,0,0,0-1.84,1,4.17,4.17,0,0,0-1.7,3.36A3.64,3.64,0,0,0,4.92,17.5a4,4,0,0,0,3,1.1,4.84,4.84,0,0,0,3.05-1,3.35,3.35,0,0,0,1.45-2.76A1.53,1.53,0,0,0,12,13.74Z"/><path d="M32.55,31.73c-1,0-1.56-.32-1.56-1a3.63,3.63,0,0,1,.9-2l1-1.25-.16-.07a12.21,12.21,0,0,1-4.95,4.06,3.44,3.44,0,0,1-1.11.22q-1.92,0-1.92-2a6.86,6.86,0,0,1,1.92-4.59q2.84-3.32,5.72-3.92A7.29,7.29,0,0,1,33.84,21a4,4,0,0,1,1,.09,2.5,2.5,0,0,1,.62.24,1,1,0,0,1,.56.88,2.81,2.81,0,0,1-.18,1l1.53-1.89a2.85,2.85,0,0,0,.78.12,10.13,10.13,0,0,0,1.32-.06l-5.26,6.34c-1.25,1.46-1.87,2.48-1.87,3.08,0,.33.2.5.59.5a3.33,3.33,0,0,0,1.37-.36A9.63,9.63,0,0,0,35.8,30a19,19,0,0,0,1.49-1.25c.48-.46.93-.91,1.34-1.35s.77-.84,1.09-1.22l.75-.84.32.27-.79.9Q35.5,31.74,32.55,31.73Zm-4.33-5.62Q26,28.78,26,30.48c0,.52.23.78.7.78q2.28,0,6.58-5l1.31-1.58a4.69,4.69,0,0,0,.94-2.06,1,1,0,0,0-1.1-1.09Q33,21.49,30.19,24A21.34,21.34,0,0,0,28.22,26.11Z"/><path d="M40.9,31.4a4.56,4.56,0,0,0-.9-.07,5.51,5.51,0,0,0-1.47.15L44,23.74a7.81,7.81,0,0,0,1-1.69c0-.34-.07-.52-.33-.52s-1.35,1-2.88,2.86l-1,1.24a.21.21,0,0,1-.25-.07c-.09-.09-.12-.16-.07-.2a15.85,15.85,0,0,0,1-1.23c.38-.49.78-1,1.19-1.42Q44.21,21,45.23,21c1.14,0,1.51.59,1.09,1.77a4,4,0,0,1-.54,1L42.5,28.3l.07.17a45.88,45.88,0,0,1,6.17-6.28A4.93,4.93,0,0,1,51.63,21a2,2,0,0,1,1.44.5,1.19,1.19,0,0,1,.4.89c0,.32,0,.55-.06.71a4.54,4.54,0,0,1-.12.5,7.39,7.39,0,0,1-.66,1.25q3.34-3.41,5.06-3.77a3.55,3.55,0,0,1,.76-.08,2.06,2.06,0,0,1,.76.14,1.92,1.92,0,0,1,.58.36,1.29,1.29,0,0,1,.39,1A3.22,3.22,0,0,1,60,23.64a7.13,7.13,0,0,1-.71,1.41,31.5,31.5,0,0,1-3.53,4.36,6.93,6.93,0,0,0-1.07,1.25,1.28,1.28,0,0,0,0,.28h-.11c0,.25.3.38.89.38a3.45,3.45,0,0,0,1.63-.4,10,10,0,0,0,1.51-1A17,17,0,0,0,60,28.56c.49-.49.93-.95,1.32-1.39l1-1.15c.27-.34.45-.56.55-.66l.33.27c-.11.1-.3.33-.59.68s-.64.75-1,1.21-.87.93-1.38,1.43a17,17,0,0,1-1.58,1.38,5.65,5.65,0,0,1-3.17,1.45,2.31,2.31,0,0,1-1.92-.72.82.82,0,0,1-.17-.51,2.67,2.67,0,0,1,.1-.69,4.11,4.11,0,0,1,.46-1A18.35,18.35,0,0,1,56,26.11c.91-1,1.51-1.72,1.78-2.08s.51-.66.68-.92A2.46,2.46,0,0,0,59,22c0-.38-.27-.57-.8-.57-1,0-2.84,1.31-5.4,3.91a50,50,0,0,0-3.66,4.2l-1.45,1.9a4.6,4.6,0,0,0-.91-.07,5.9,5.9,0,0,0-1.46.15c1.54-1.88,2.38-2.92,2.54-3.12q3.51-4.63,3.89-5.25a3.24,3.24,0,0,0,.52-1.23c0-.32-.26-.49-.77-.49a4,4,0,0,0-2.37,1.1,47.59,47.59,0,0,0-6.73,7Z"/><path d="M68.8,30.35a10.35,10.35,0,0,1-2.14,1,6.53,6.53,0,0,1-2.17.41,4.26,4.26,0,0,1-1.57-.22A2.33,2.33,0,0,1,62,31c-1-1.06-1-2.63,0-4.7A7.6,7.6,0,0,1,64,23.79a14.31,14.31,0,0,1,2.28-1.69A7.23,7.23,0,0,1,69.84,21c1.11,0,1.68.35,1.74,1q.11,1.68-4.06,3.64a34.77,34.77,0,0,1-3.86,1.49,5,5,0,0,0-.92,2.44,1.61,1.61,0,0,0,.49,1.34,2.23,2.23,0,0,0,1.44.4,5.89,5.89,0,0,0,2-.4,10.44,10.44,0,0,0,2.06-1,12.62,12.62,0,0,0,1.74-1.36c.53-.49,1-1,1.39-1.41s.73-.83,1-1.16a6.63,6.63,0,0,1,.52-.62l.33.27a5.26,5.26,0,0,0-.61.7c-.28.35-.63.76-1.05,1.21s-.91.93-1.45,1.43A12.79,12.79,0,0,1,68.8,30.35ZM64,26.61c3.14-1.1,5.17-2.2,6.07-3.3a1.68,1.68,0,0,0,.46-1.06c0-.58-.27-.87-.82-.87q-1.42,0-3.59,2.51A26.47,26.47,0,0,0,64,26.61Z"/><path d="M28.64,46.14h-2V45.8h.64V42.16H26.2l-.12.14v.8h-.45V41.82h4.05V43.1h-.45v-.8l-.12-.14H28V45.8h.64Z"/><path d="M32.3,46.14H30.79V45.8h.48l1.6-4h.66l1.46,4h.46v.34H33.69V45.8h.55l-.4-1.09H32.19l-.42,1.09h.53Zm0-1.78h1.4l-.51-1.43-.15-.65h0l-.17.67Z"/><path d="M40.77,45.85l-.3.14-.35.12-.36.08-.36,0a3.44,3.44,0,0,1-1-.14,1.84,1.84,0,0,1-.76-.4,1.7,1.7,0,0,1-.47-.7A2.76,2.76,0,0,1,37,44a2.46,2.46,0,0,1,.19-1,1.86,1.86,0,0,1,.52-.7,2,2,0,0,1,.74-.39,3,3,0,0,1,.85-.12,4,4,0,0,1,.76.06,3.66,3.66,0,0,1,.53.17V43h-.4v-.65l-.08-.12A.52.52,0,0,0,40,42.2l-.18,0-.2,0h-.19a1.89,1.89,0,0,0-.63.1,1.36,1.36,0,0,0-.52.33,1.6,1.6,0,0,0-.34.57,2.32,2.32,0,0,0-.13.84,2,2,0,0,0,.44,1.36,1.59,1.59,0,0,0,1.25.48,1.83,1.83,0,0,0,.35,0,1.49,1.49,0,0,0,.25-.07l.1-.11V44.44h-.66V44.1H41.2v.34h-.43Z"/><path d="M43.16,42.16v-.34h1.92v.34h-.67V45.8h1.65l.12-.14v-.85h.45v1.33H43.16V45.8h.56V42.16Z"/><path d="M50.41,46.14H48.59V45.8h.57V42.16h-.57v-.34h1.82v.34h-.56V45.8h.56Z"/><path d="M55.63,41.82h1.52v.34h-.57v4.06h-.4l-2.51-3.4-.28-.47h0l.06.48v3H54v.34H52.47V45.8H53V42.16h-.57v-.34h1.24l2.16,2.91.32.53h0l0-.53V42.16h-.56Z"/><path d="M62.37,41.82v1H62V42.3l-.13-.14H60.34v1.6h1l.1-.09v-.26h.39v1.06h-.39v-.26l-.1-.1h-1V45.8H62l.12-.13v-.6h.4v1.07H59.09V45.8h.56V42.16h-.56v-.34Z"/><path d="M68.44,45.54l.11.14a.84.84,0,0,0,.3.14,2,2,0,0,0,.43,0,1.7,1.7,0,0,0,.41,0,.82.82,0,0,0,.33-.14.63.63,0,0,0,.23-.23.71.71,0,0,0,.08-.34.57.57,0,0,0-.17-.42,2,2,0,0,0-.43-.3c-.17-.08-.35-.17-.55-.25a3.6,3.6,0,0,1-.55-.29,1.61,1.61,0,0,1-.42-.4,1,1,0,0,1-.17-.6.93.93,0,0,1,.4-.81,1.73,1.73,0,0,1,1.08-.3,3.84,3.84,0,0,1,.73.06,2.24,2.24,0,0,1,.53.15V43h-.4v-.67l-.1-.15a1.06,1.06,0,0,0-.34-.08l-.44,0a.93.93,0,0,0-.58.17.63.63,0,0,0,0,.9,2.07,2.07,0,0,0,.43.31l.55.26a3.6,3.6,0,0,1,.55.29,1.57,1.57,0,0,1,.42.39A.94.94,0,0,1,71,45a1,1,0,0,1-.46.92,2.23,2.23,0,0,1-1.27.32,2.46,2.46,0,0,1-.76-.1,1.67,1.67,0,0,1-.47-.19V44.8h.4Z"/><path d="M73.08,42.16v-.34h.65l.6,0,.63,0a3.68,3.68,0,0,1,.66.06,2,2,0,0,1,.58.22,1.15,1.15,0,0,1,.41.41,1.17,1.17,0,0,1,.16.64,1.16,1.16,0,0,1-.16.63,1.44,1.44,0,0,1-.42.43,2.23,2.23,0,0,1-.61.25,3.29,3.29,0,0,1-.71.08h-.53V45.8H75v.34H73.08V45.8h.57V42.16Zm1.26,2h.49a1.63,1.63,0,0,0,.45-.06,1.06,1.06,0,0,0,.37-.18.92.92,0,0,0,.26-.32A1.14,1.14,0,0,0,76,43.1a.9.9,0,0,0-.32-.75,1.41,1.41,0,0,0-.87-.24h-.27l-.2,0Z"/><path d="M79.55,46.14H78V45.8h.48l1.6-4h.66l1.46,4h.46v.34H80.94V45.8h.55l-.41-1.09H79.44L79,45.8h.53Zm0-1.78H81l-.51-1.43-.15-.65h0l-.17.67Z"/><path d="M87.4,45h.4v1a2.16,2.16,0,0,1-.51.17,3.37,3.37,0,0,1-.62.07,4,4,0,0,1-1-.13,2,2,0,0,1-.77-.41A1.82,1.82,0,0,1,84.4,45a2.78,2.78,0,0,1-.16-1,2.64,2.64,0,0,1,.18-1,1.87,1.87,0,0,1,1.23-1.08,2.82,2.82,0,0,1,.87-.13l.41,0,.32,0,.27.08.24.09V43h-.4v-.65l-.08-.12a1,1,0,0,0-.22-.08,1.71,1.71,0,0,0-.46,0,1.85,1.85,0,0,0-.63.1,1.29,1.29,0,0,0-.5.33,1.76,1.76,0,0,0-.34.57A2.57,2.57,0,0,0,85,44a1.91,1.91,0,0,0,.45,1.36,1.64,1.64,0,0,0,1.26.48,2,2,0,0,0,.37,0,.81.81,0,0,0,.22-.09l.09-.12Z"/><path d="M93.23,41.82v1h-.4V42.3l-.12-.14H91.2v1.6h1l.09-.09v-.26h.4v1.06h-.4v-.26l-.09-.1h-1V45.8h1.61l.13-.13v-.6h.39v1.07H89.94V45.8h.56V42.16h-.56v-.34Z"/><path d="M12.78,46.75l.2-.48c.12-.32.33-.78.62-1.38A17.81,17.81,0,0,1,17,40.2a19.15,19.15,0,0,1,7.78-4.63A33.83,33.83,0,0,1,36.42,34.2c1.07.06,2.19.14,3.27.25l3.33.3,7,.66c4.8.47,9.86.93,15.07,1.32,1.31.1,2.62.17,3.94.25.66.05,1.33.06,2,.09s1.34.06,2,.06l2,0,2,0c.68,0,1.35,0,2-.07.33,0,.67,0,1-.06l1-.09,1-.09,1-.14,1-.14c.34,0,.66-.13,1-.19l1-.2.23,0,.25-.07.51-.13c.35-.09.64-.2,1-.29s.63-.22,1-.34a19,19,0,0,0,9.37-7.49,18.64,18.64,0,0,0,1.8-3.67,18.74,18.74,0,0,0,1-3.95,18.49,18.49,0,0,0-.15-6.05,15.76,15.76,0,0,0-.5-1.94,15.78,15.78,0,0,0-1.64-3.59A13.92,13.92,0,0,0,93.3,3.47a16,16,0,0,0-7.14-1.61,22.36,22.36,0,0,0-3.58.28c-.3,0-.59.09-.88.15l-.87.18h-.06s-.07,0,0,0l-.11,0-.22.06L80,2.68a7,7,0,0,0-.84.25l-.77.27-.75.34-.38.17-.35.2a8,8,0,0,0-.7.41,10.37,10.37,0,0,0-2.36,2.05l-.25.29-.23.3-.42.63-.36.66c-.12.21-.2.45-.31.67a10.78,10.78,0,0,0-.73,2.81,10.07,10.07,0,0,0,.08,2.8c0,.22.08.45.14.66s.1.44.17.65l.21.63c.09.2.18.4.26.6a8.52,8.52,0,0,0,1.4,2.08,7.09,7.09,0,0,0,1.86,1.41,6.55,6.55,0,0,0,2.11.66,6.4,6.4,0,0,0,1.07.06h.52l.53-.05a10.54,10.54,0,0,0,3.67-1.13,6,6,0,0,0,2.28-2,4.55,4.55,0,0,0,.72-2.17,6.16,6.16,0,0,0-.08-1.48c-.07-.33-.11-.5-.11-.5s.07.16.19.48a6.47,6.47,0,0,1,.3,1.5,4.9,4.9,0,0,1-.48,2.47,6.89,6.89,0,0,1-2.32,2.54,11.55,11.55,0,0,1-4,1.61l-.58.1-.62.06a9,9,0,0,1-1.28,0A8.35,8.35,0,0,1,75,22.05a8.27,8.27,0,0,1-2.43-1.64,10.09,10.09,0,0,1-1.83-2.48,10.45,10.45,0,0,1-1.06-3,12.12,12.12,0,0,1-.18-3.36,12.34,12.34,0,0,1,.82-3.43c.13-.27.23-.56.38-.83l.44-.8.52-.77a3.27,3.27,0,0,1,.28-.37L72.19,5c.11-.12.2-.25.31-.36l.33-.33a8.53,8.53,0,0,1,.69-.65c.24-.2.48-.41.74-.6l.79-.53c.26-.18.55-.31.83-.47l.43-.22.43-.2.89-.37.94-.31a7.89,7.89,0,0,1,.91-.25l.45-.1.22-.06.11,0c.1,0,.06,0,.1,0h.06l.94-.16c.31-.06.63-.09,1-.13A24.13,24.13,0,0,1,86.22,0,17.61,17.61,0,0,1,94,2.17,15.5,15.5,0,0,1,99.85,8a18.5,18.5,0,0,1,2.41,8,20.16,20.16,0,0,1-.14,4.25,20.56,20.56,0,0,1-1,4.17,20.86,20.86,0,0,1-4.43,7.36,21.23,21.23,0,0,1-3.29,2.85,22,22,0,0,1-3.79,2.12c-.34.14-.66.3-1,.42s-.7.27-1,.37l-.49.16-.25.09-.09,0-.06,0-.13,0-1,.28c-.35.08-.69.19-1,.26l-1,.21-1,.2-1,.15a61.9,61.9,0,0,1-8.33.61c-2.74,0-5.44-.06-8.09-.2-5.3-.3-10.37-.86-15.17-1.41l-3.55-.43-3.44-.43-3.32-.42c-1.1-.15-2.12-.26-3.16-.35a39,39,0,0,0-5.89-.11c-.46,0-.92.07-1.37.11s-.9.1-1.33.17c-.88.12-1.72.3-2.52.49a23.87,23.87,0,0,0-2.3.71,21.44,21.44,0,0,0-2.05.9,17.47,17.47,0,0,0-3.3,2.17,18.1,18.1,0,0,0-2.28,2.27l-.43.53c-.14.17-.25.34-.38.5-.24.32-.43.63-.62.9-.35.55-.61,1-.77,1.29Z"/></g></g></svg>