<svg xmlns="http://www.w3.org/2000/svg" viewBox="0 0 259.62 53.55"><defs><style>.cls-1{fill:#fff;}</style></defs><title>logo_polo</title><g id="Camada_2" data-name="Camada 2"><g id="Camada_1-2" data-name="Camada 1"><path class="cls-1" d="M183.25,39.54c0,.35-.12.44-.45.44h-5a.35.35,0,0,1-.18,0h0c-.18-.08-.24-.28-.33-.45-.92-1.84-1.77-3.71-2.65-5.56s-1.74-3.68-2.62-5.51a21.82,21.82,0,0,0-1.11-2.29c-.72,1.34-1.31,2.68-1.94,4-.8,1.71-1.62,3.4-2.41,5.12-.64,1.39-1.31,2.76-2,4.15a1.1,1.1,0,0,1-.47.61h-5.49a.87.87,0,0,1-.09-.59q0-13.83,0-27.63c0-.46.1-.61.58-.6,1.62,0,3.25,0,4.88,0,.47,0,.54.16.54.57q0,6.81,0,13.62a1,1,0,0,0,.07.6,1.06,1.06,0,0,0,.31-.51c1.42-3,2.85-6,4.26-9a.59.59,0,0,1,.66-.44c.71,0,1.43,0,2.13,0a.63.63,0,0,1,.71.46q2.16,4.63,4.36,9.25c.05.12.11.22.16.34l.19,0V11.33a8.33,8.33,0,0,1,1.73-.05c1.19,0,2.39,0,3.58,0,.48,0,.59.14.58.59V38.31C183.25,38.72,183.23,39.13,183.25,39.54Z"/><path class="cls-1" d="M53.25,28.93V40H47.07q0-14.14,0-28.28c0-.45.13-.55.56-.55H63.43c.19,0,.42-.09.57.13a1.37,1.37,0,0,1-1,.17H48.17c-.77,0-.8,0-.81.78q0,13.32,0,26.62c0,.78,0,.82.82.83h3.87c.87,0,.89,0,.89-.87,0-3,0-6,0-9.08C53,29.49,52.8,29.1,53.25,28.93Z"/><path class="cls-1" d="M99.7,40l0-.12a1.35,1.35,0,0,1,1-.17h17.38c1.1,0,1.1,0,1.1-1.11V36.16c0-.87,0-.88-.87-.88h-8.85c-1,0-2,0-2.92,0-.24,0-.55.07-.65-.28q6.55,0,13.1,0c.37,0,.47.12.47.48,0,1.53,0,3,0,4.58Z"/><path class="cls-1" d="M90.27,39.92V40H77.59a.31.31,0,0,1,0-.1.87.87,0,0,1,.73-.19q5.61,0,11.22,0A.94.94,0,0,1,90.27,39.92Z"/><path class="cls-1" d="M127.31,40a.16.16,0,0,1,0-.09c.2-.23.47-.2.73-.2q5.6,0,11.17,0c.26,0,.53,0,.73.21a.07.07,0,0,1,0,.08Z"/><path class="cls-1" d="M259.4,39.35c-1.58-3.33-3.15-6.67-4.75-10a.55.55,0,0,1,.19-.82c1.18-1,2.33-2,3.51-3a.73.73,0,0,0,.3-.61c0-3.27,0-6.53,0-9.8a.62.62,0,0,0-.22-.54q-2-1.65-3.94-3.32H238.34c-.43,0-.63.06-.63.56q0,13.76,0,27.51c0,.42.11.56.53.55,1.63,0,3.26,0,4.88,0,.32,0,.47-.06.53-.25a.9.9,0,0,0,0-.31q0-4.9,0-9.81c0-.21-.09-.45.11-.63,1.25,0,2.5,0,3.75,0,.29,0,.38.16.47.37.35.78.7,1.56,1.06,2.34q1.91,4.16,3.82,8.31h6.73A5.59,5.59,0,0,0,259.4,39.35ZM252.54,23.2c0,.41-.12.49-.5.48-1.29,0-2.58,0-3.87,0s-2.62,0-3.93,0c-.33,0-.49,0-.49-.44,0-2.19,0-4.37,0-6.56,0-.38.12-.46.47-.46q3.93,0,7.86,0c.38,0,.45.12.45.48Q252.53,19.94,252.54,23.2Z"/><path class="cls-1" d="M144.11,15.27a.85.85,0,0,0-.31-.72c-1.21-1-2.4-2-3.59-3.05a1.09,1.09,0,0,0-.75-.28H127.74a1,1,0,0,0-.71.25l-3.68,3.12a.67.67,0,0,0-.27.56v20.9a.62.62,0,0,0,.21.54c1.34,1.11,2.66,2.23,4,3.35l7.43,0,5.2,0c1.28-1.09,2.56-2.18,3.86-3.25a.87.87,0,0,0,.35-.76Q144.11,25.61,144.11,15.27Zm-14.35.95q3.84,0,7.68,0c.39,0,.55.06.55.51q0,8.88,0,17.77c0,.43-.11.51-.52.51-2.58,0-5.17,0-7.74,0-.44,0-.52-.13-.51-.53,0-2.95,0-5.9,0-8.86s0-5.9,0-8.85C129.2,16.32,129.33,16.22,129.76,16.22Z"/><path class="cls-1" d="M94,14.47c-1.18-1-2.35-2-3.5-3a1.06,1.06,0,0,0-.75-.28H78a1.08,1.08,0,0,0-.75.29c-1.19,1-2.38,2-3.59,3.05a.73.73,0,0,0-.3.61q0,10.46,0,20.91a.6.6,0,0,0,.22.53l4,3.32H90.27c1.26-1.06,2.5-2.14,3.78-3.18a1,1,0,0,0,.37-.85q0-10.26,0-20.52A1,1,0,0,0,94,14.47Zm-14.5,11.1c0-2.92,0-5.83,0-8.75,0-.44.07-.6.57-.6,2.55,0,5.12,0,7.68,0,.46,0,.55.15.54.57q0,8.82,0,17.65c0,.41-.06.58-.53.57Q83.9,35,80,35c-.44,0-.53-.12-.52-.53C79.53,31.51,79.52,28.54,79.52,25.57Z"/><path class="cls-1" d="M192.4,35c.18.22.42.12.63.12,4.51,0,9,0,13.52,0,.5,0,.68.1.66.64,0,1.19,0,2.39,0,3.59,0,.49-.11.62-.62.62-5.74,0-11.48,0-17.22,0h-3.14c0-.19,0-.38,0-.56q0-13.75,0-27.52c0-.52.14-.63.64-.62h19.85c.46,0,.62.09.6.57,0,1.31,0,2.61,0,3.92,0,.42-.11.53-.53.53-4.6,0-9.2,0-13.8,0-.46,0-.59.1-.58.57,0,1.89,0,3.78,0,5.66,0,.43.08.56.54.56,3,0,6,0,9,0,.52,0,.61.16.6.63,0,1.36,0,2.72,0,4.09,0,.42-.11.53-.53.53-3,0-6,0-9,0-.43,0-.56.1-.55.54C192.41,30.83,192.4,32.9,192.4,35Z"/><path class="cls-1" d="M67.85,14.59,64,11.34l-.22,0H47.63c-.47,0-.45.24-.45.56q0,13.76,0,27.51c0,.47.16.55.58.55,1.61,0,3.22,0,4.82,0,.49,0,.59-.16.58-.61q0-4.87,0-9.75c0-.21-.09-.45.1-.63.2,0,.41,0,.61,0H63.4a1.12,1.12,0,0,0,.81-.28q1.8-1.56,3.63-3.09a.68.68,0,0,0,.28-.57q0-4.91,0-9.8A.69.69,0,0,0,67.85,14.59ZM62,23.47c0,.35-.1.44-.44.44-1.33,0-2.65,0-4,0s-2.62,0-3.92,0c-.36,0-.44-.1-.43-.44q0-3.42,0-6.84c0-.31.08-.41.4-.41,2.66,0,5.31,0,8,0,.32,0,.4.11.4.42Q62,20,62,23.47Z"/><path class="cls-1" d="M234.91,39.75q-4.75-14.08-9.51-28.17a.45.45,0,0,0-.52-.36c-1.55,0-3.1,0-4.66,0-.43,0-.58.15-.72.55q-2.82,8.44-5.67,16.9c-1.25,3.71-2.48,7.42-3.72,11.13.12.17.29.13.46.13h5.59c.65-2.16,1.31-4.32,1.94-6.48.11-.38.26-.48.65-.48q3.7,0,7.4,0a.64.64,0,0,1,.75.52c.7,2.16,1.46,4.3,2.19,6.45h5.83A.47.47,0,0,0,234.91,39.75Zm-15-11.87c.83-2.66,1.64-5.33,2.47-8,0,0,.05-.05.12-.12.85,2.81,1.68,5.59,2.54,8.46h-4.78C220.08,28.22,219.81,28.3,219.94,27.88Z"/><path class="cls-1" d="M105.87,35c.19.18.43.1.64.1,4.08,0,8.15,0,12.23,0,.45,0,.61.11.6.58,0,1.25,0,2.51,0,3.76,0,.38-.1.51-.5.51-6.38,0-12.75,0-19.12,0,0-.18,0-.37,0-.56q0-13.74,0-27.5c0-.51.13-.65.64-.64,1.63,0,3.25,0,4.88,0,.54,0,.63.18.62.66q0,11.23,0,22.46A1.34,1.34,0,0,0,105.87,35Z"/><path class="cls-1" d="M41.81,49c0-.16-.08-.21-.24-.19-.4.07-.81.1-1.21.18s-.37,0-.47-.25q-2.55-6.33-5.12-12.64a5.21,5.21,0,0,1-.28-2.17c0-1.33.3-2.65.37-4a8,8,0,0,1,.23-1.47c0-.08,0-.2.16-.19a1.54,1.54,0,0,0,1.49-.94A2.34,2.34,0,0,0,37,25.83a4.42,4.42,0,0,1,.1-1.88c0-.15.12-.39,0-.48s-.1-.22-.07-.31a23.15,23.15,0,0,0,.49-2.59,6.53,6.53,0,0,0,.08-2.33c-.34-1.49-.73-3-1.1-4.43a.67.67,0,0,1,0-.52c.09-.16.2-.35.08-.54a8.12,8.12,0,0,1-.92-2.58,3.36,3.36,0,0,0-2-2.63c-.09,0-.21-.08-.22-.2,0-.35-.28-.51-.56-.67a1.93,1.93,0,0,1-.5-.45A.73.73,0,0,0,31.63,6c-.26.09-.29-.07-.25-.21a5.15,5.15,0,0,1,.41-.93c.1-.16.34-.08.5-.13s.31,0,.36-.21a.36.36,0,0,0-.16-.42.64.64,0,0,1-.3-.66,3.17,3.17,0,0,0-.07-.61A2.46,2.46,0,0,0,30.93,1,2.48,2.48,0,0,0,27.4,2.28c-.11.28-.16.58-.26.87s0,.41-.17.58c-.33.38-.31.58.17.68a1.09,1.09,0,0,1,.83.81,2.44,2.44,0,0,0,.14.28c.26.49.25.52-.3.75l-.09,0a1.23,1.23,0,0,0-.94.93c0,.09,0,.25-.16.23s-.35.19-.52.27a3.21,3.21,0,0,0-1.55,1.73c-.63,1.26-1.07,2.59-1.63,3.88,0,.1-.05.23-.18.3-.06-.44,0-.86,0-1.27A16.26,16.26,0,0,0,22,9.44a7.54,7.54,0,0,0-.77-1.77,1.3,1.3,0,0,0-.62-.56A6.47,6.47,0,0,1,18,5.58a.74.74,0,0,0-.49-.18,4.86,4.86,0,0,0,.39-.68.89.89,0,0,1,.8-.64c.21,0,.48-.08.53-.31s-.17-.41-.32-.52a.71.71,0,0,1-.3-.6,3.81,3.81,0,0,0-.34-1.24A2.34,2.34,0,0,0,16.06,0a2.23,2.23,0,0,0-2.12,1.43,5.16,5.16,0,0,0-.4,1.68.52.52,0,0,1-.17.37c-.13.1-.32.19-.26.4s.27.18.42.24.26,0,.4.08a.23.23,0,0,1,.17.08c.15.21.18,1.21,0,1.34a8.85,8.85,0,0,1-1,.78c-.61.28-1.2.62-1.78.95A1.62,1.62,0,0,0,10.6,8a25.92,25.92,0,0,0-1.49,3A10.47,10.47,0,0,1,8,13.11s-.08.09-.08.11c.18.43-.17.66-.34.95-.43.71-.93,1.37-1.29,2.12a2.34,2.34,0,0,0,0,2.05,14.6,14.6,0,0,0,1.87,3.34,8.09,8.09,0,0,1,1.11,1.61,2.11,2.11,0,0,0,.22.56,15.31,15.31,0,0,0,1.3,1.78s.1.1.1.14a4.78,4.78,0,0,1-.11,1.55c-.69,1.71-1.39,3.41-2.08,5.12L1.94,49c-.09.22-.18.31-.44.25s-.74-.08-1.11-.13c-.18,0-.25,0-.27.22a5,5,0,0,1-.11.56c0,.13,0,.19.12.23a11.31,11.31,0,0,0,3.35.65c.17,0,.23-.06.24-.21a1.2,1.2,0,0,1,.06-.33c.08-.26,0-.4-.28-.47s-.44-.17-.68-.21-.31-.16-.2-.43q4.11-10,8.18-20c0-.07.07-.14.11-.22.12.21-.07.36,0,.55a28.33,28.33,0,0,1,.43,3,5.26,5.26,0,0,1,0,1.25c0,.35.21.78-.23,1.05a3.86,3.86,0,0,0,.09,3.07,2.61,2.61,0,0,1,.33,1.4.4.4,0,0,0,.25.44c.15.06.15.16.16.29a33.34,33.34,0,0,1,.19,4.24,3.92,3.92,0,0,1-.89,2.3,4.82,4.82,0,0,0-1,1.65.84.84,0,0,0,.68,1.14,2.82,2.82,0,0,0,1.47,0,2.32,2.32,0,0,0,1.68-1.58c0-.13.11-.36.16-.35.36.08.53-.22.79-.33a.84.84,0,0,0,.48-.73,3.08,3.08,0,0,0-.17-1.59,2.23,2.23,0,0,1-.22-1l.24-3.7c0-.33.25-.61.18-1a24,24,0,0,1-.1-2.4,6.77,6.77,0,0,1,.13-1.78l-.46.15c.13-.82.28-1.59.37-2.36.07-.56.27-1.09.29-1.65a10.7,10.7,0,0,1,.1-1.39,9,9,0,0,1,.41-1.7c0-.12.12-.26.29-.25s.22.14.28.26a4.8,4.8,0,0,1,.24.63A20,20,0,0,1,18.15,35c0,.19.23.5-.17.6,0,0,0,.08,0,.13.28,1.15,0,2.32.1,3.48a3.33,3.33,0,0,1-.09.61.63.63,0,0,0,.13.63c.07.07,0,.17,0,.26,0,.94.07,1.88.12,2.82a8.19,8.19,0,0,1-.28,3,1.57,1.57,0,0,0,.84,2.06c.25.13.25.27.29.46a3,3,0,0,0,2.44,2.47,1.19,1.19,0,0,0,.92-.11A1.22,1.22,0,0,0,23,50a3.51,3.51,0,0,0-.68-1.57,5.23,5.23,0,0,1-1-3.82c.15-1.23.21-2.46.31-3.69,0-.21,0-.4.24-.5A.35.35,0,0,0,22,40.1a6.13,6.13,0,0,1,.29-1.94A4.6,4.6,0,0,0,22.29,36a3.79,3.79,0,0,1-.14-.83c0-1.65.42-3.26.41-4.91a31.7,31.7,0,0,0-.11-3.9c-.07-.52-.18-1-.28-1.56.77.06,1.08-.36.8-1-.11-.26-.26-.51-.38-.76a1.61,1.61,0,0,1-.28-.61.84.84,0,0,0-.4-.67.46.46,0,0,1-.23-.31,17.51,17.51,0,0,1-.38-4,1.56,1.56,0,0,1,.06-.44.45.45,0,0,1,.45-.29c.12,0,0,.24,0,.36a3.18,3.18,0,0,1-.1.33,1.77,1.77,0,0,0,.82,2.25A24.59,24.59,0,0,0,24.85,21a.36.36,0,0,1,.22.48,4.62,4.62,0,0,0-.19,1.91,3,3,0,0,1,0,1.36c0,.17-.05.37.11.46s.14.24.12.38a21.23,21.23,0,0,0-.23,4.51,19.64,19.64,0,0,1,.05,4.2,21.43,21.43,0,0,0,0,3.49c0,1.83.14,3.67.18,5.5a4.81,4.81,0,0,1-1.23,3.15A3.85,3.85,0,0,0,23,48.25a1,1,0,0,0,1.09,1.28A3.09,3.09,0,0,0,27,47.23c.05-.19.07-.36.34-.48a1.68,1.68,0,0,0,1-2.08,4.69,4.69,0,0,1-.23-1.23q.3-3.27.62-6.56c0-.25.15-.51-.14-.7,0,0,0-.13,0-.2.07-.48.15-.95.23-1.43.17-1,.38-2.09.45-3.16a14.56,14.56,0,0,1,.4-2.78c.07-.22.07-.57.33-.57s.3.33.37.57c.2.79.25,1.61.39,2.41s.31,1.5.37,2.27,0,1.43.05,2.14c0,.26.26.57-.13.77,0,0,0,.07,0,.1.11.78.08,1.56.16,2.34.1,1.07.18,2.14.3,3.21a7,7,0,0,1-.3,2c-.14.79,0,1.49.61,1.78s.63.33,1,1a1.53,1.53,0,0,0,.29.38,2.58,2.58,0,0,0,2.33.73c.85-.12,1.15-.64.8-1.42A5.67,5.67,0,0,0,35.27,45a3.71,3.71,0,0,1-1-2.29c-.07-1.42,0-2.83.07-4.25,0-.35,0-.71.07-1.15.09.21.15.33.19.46L39,48.42c.1.25.32.55.26.75s-.48.22-.73.33c-.64.26-.63.25-.5.93,0,.21.11.27.32.27a11.1,11.1,0,0,0,2.86-.58C42,49.85,42,49.85,41.81,49Zm-6.92-33.1a6.69,6.69,0,0,1,.64,3,23.54,23.54,0,0,0,0,2.79,3.36,3.36,0,0,1-.27-1.52.66.66,0,0,0-.15-.54,1.44,1.44,0,0,1-.3-1.21,4.2,4.2,0,0,0,0-1.58A1.63,1.63,0,0,1,34.89,15.89ZM10.64,22a.53.53,0,0,1-.24-.34,22.87,22.87,0,0,1-.83-2.22,6.83,6.83,0,0,0-.74-1.6A.59.59,0,0,1,8.88,17c.29-.35.62-.67.87-1s.78-.54.83-1.13C10.91,15.74,10.93,19.31,10.64,22Zm13.51-3.84a.38.38,0,0,1-.12-.4,4.18,4.18,0,0,1,.56-1.38c.13-.2.33-.39.49-.62.14,1.15-.32,2.31.18,3.44C24.88,18.79,24.54,18.43,24.15,18.12Z"/><path class="cls-1" d="M24.48,52.32a1.17,1.17,0,0,1,1.17-1.15,1.21,1.21,0,0,1,1.21,1.2,1.18,1.18,0,0,1-1.2,1.17A1.17,1.17,0,0,1,24.48,52.32Z"/><path class="cls-1" d="M35.56,26c0,.17,0,.25-.1.34Z"/></g></g></svg>